<svg width="143" height="104" viewBox="0 0 143 104" fill="none" xmlns="http://www.w3.org/2000/svg">
<rect width="143" height="104" fill="white"/>
<path d="M44.1029 48.1172C35.96 48.1172 41.8946 64.5058 45.207 59.5544C47.067 56.7739 45.9618 52.2792 45.7333 49.2046C45.6784 48.4655 46.7973 56.8243 47.2225 58.8124C49.8698 71.1916 55.6921 58.4868 58.4169 52.3773C61.1241 46.3072 58.5074 57.2165 58.25 58.71C56.9986 65.9696 56.0056 73.4157 54.0906 80.5353C52.8603 85.1095 50.9551 89.3518 49.4306 93.8148C48.9963 95.0859 47.7838 100.908 47.8002 99.8788C48.056 83.8165 58.259 67.8209 63.3979 52.953C67.845 40.0866 75.1723 28.7551 80.0098 16.1468C80.0867 15.9463 75.2476 24.9866 74.6565 28.7738C73.3081 37.4119 70.6891 45.8809 70.0349 54.6162C68.837 70.6134 72.2069 45.1924 74.143 56.9957C74.8857 61.524 78.6977 51.5259 79.7787 50.3688C80.8418 49.2309 80.9197 61.7146 81.3321 63.6226C83.5081 73.691 83.7226 61.0224 84.0793 57.6098C85.1551 47.3179 86.9394 36.4089 91.5765 27.0595C95.6256 18.8954 97.7452 12.9538 104.825 6.66698C112.381 -0.0433482 111.342 7.2281 110.011 13.9591C108.087 23.6883 106.009 32.6318 101.282 41.4519C97.0616 49.3261 91.3561 56.0618 88.5211 64.6461C85.7448 73.0526 100.755 49.9343 109.472 48.2451C113.957 47.3761 104.096 73.143 111.308 67.1536C114.744 64.3003 116.987 61.1939 121.103 63.7762C125.772 66.706 136.05 62.0773 140 59.4009" stroke="black" stroke-width="3.5" stroke-linecap="round"/>
<path d="M57 36C67.2959 35.6932 77.7071 33.7886 88 33" stroke="black" stroke-width="3.5" stroke-linecap="round"/>
<path d="M7.97547 19.7693C9.00638 21.5068 23.6981 18.8352 26.2839 19.0081C31.8697 19.3817 31.3498 27.3464 32.1049 31.2182C33.6416 39.0979 36.4873 54.1279 29.5033 60.4952C23.4194 66.0419 6.59716 61.5832 3 54.8468" stroke="black" stroke-width="3.5" stroke-linecap="round"/>
</svg>
