<svg width="1440" height="1024" viewBox="0 0 1440 1024" fill="none" xmlns="http://www.w3.org/2000/svg">
<rect width="1440" height="1024" fill="white"/>
<path d="M471.091 477.272C397.478 477.272 451.127 625.964 481.071 581.04C497.886 555.814 487.895 515.033 485.829 487.138C485.333 480.432 495.448 556.271 499.291 574.308C523.223 686.624 575.857 571.355 600.489 515.924C624.962 460.85 601.307 559.829 598.98 573.379C587.668 639.245 578.69 706.803 561.379 771.399C550.257 812.899 533.034 851.39 519.252 891.882C515.327 903.414 504.365 956.235 504.514 946.9C506.826 801.168 599.061 656.042 645.517 521.147C685.719 404.411 751.957 301.601 795.688 187.207C796.384 185.388 752.639 267.41 747.295 301.77C735.105 380.144 711.429 456.982 705.516 536.236C694.686 681.377 725.15 450.736 742.653 557.826C749.367 598.91 783.827 508.198 793.599 497.7C803.21 487.376 803.914 600.64 807.642 617.951C827.314 709.301 829.252 594.36 832.477 563.397C842.202 470.02 858.333 371.044 900.251 286.217C936.855 212.145 956.017 158.237 1020.02 101.197C1088.33 40.315 1078.94 106.288 1066.9 167.359C1049.51 255.631 1030.72 336.774 987.987 416.798C949.837 488.24 898.259 549.352 872.631 627.237C847.533 703.508 983.222 493.758 1062.03 478.432C1102.57 470.548 1013.43 704.328 1078.62 649.987C1109.68 624.099 1129.97 595.915 1167.17 619.344C1209.38 645.926 1302.3 603.93 1338 579.647" stroke="black" stroke-width="30" stroke-linecap="round"/>
<path d="M591 368C683.331 365.444 776.696 349.571 869 343" stroke="black" stroke-width="30" stroke-linecap="round"/>
<path d="M146.1 223.889C155.445 239.448 288.618 215.524 312.057 217.073C362.69 220.418 357.977 291.739 364.822 326.409C378.751 396.967 404.546 531.554 341.24 588.57C286.092 638.239 133.607 598.313 101 537.992" stroke="black" stroke-width="30" stroke-linecap="round"/>
</svg>
